<?xml version="1.0" encoding="utf-8"?>
<!-- Generator: Adobe Illustrator 18.1.1, SVG Export Plug-In . SVG Version: 6.00 Build 0)  -->
<!DOCTYPE svg PUBLIC "-//W3C//DTD SVG 1.1//EN" "http://www.w3.org/Graphics/SVG/1.1/DTD/svg11.dtd">
<svg version="1.1" id="Layer_1" xmlns="http://www.w3.org/2000/svg" xmlns:xlink="http://www.w3.org/1999/xlink" x="0px" y="0px"
	 width="69.1px" height="97px" viewBox="0 0 69.1 97" enable-background="new 0 0 69.1 97" xml:space="preserve">
<g>
	<g>
		<defs>
			<path id="XMLID_14_" d="M32.3,46.5l-0.1-2.1l-1.9-0.1L29,46l-0.2,1.4c0,0,0.5,0.5,0.7,0.4s1.2,0.2,1.4,0.1
				C31.2,47.8,32.3,46.5,32.3,46.5z"/>
		</defs>
		<use xlink:href="#XMLID_14_"  overflow="visible" fill="#2A2F36"/>
		<clipPath id="XMLID_16_">
			<use xlink:href="#XMLID_14_"  overflow="visible"/>
		</clipPath>
		<polygon opacity="0.45" clip-path="url(#XMLID_16_)" fill="#4398DA" points="32.4,45 30.5,46.4 27.1,45.7 29.4,43.6 33.2,43.8 		
			"/>
	</g>
	<g>
		<defs>
			<path id="XMLID_13_" d="M33.7,46.5l0.1-2.1l1.9-0.1l1.3,1.7l0.2,1.4c0,0-0.5,0.5-0.7,0.4c-0.2-0.1-1.2,0.2-1.4,0.1
				C34.9,47.8,33.7,46.5,33.7,46.5z"/>
		</defs>
		<use xlink:href="#XMLID_13_"  overflow="visible" fill="#2A2F36"/>
		<clipPath id="XMLID_17_">
			<use xlink:href="#XMLID_13_"  overflow="visible"/>
		</clipPath>
		<path opacity="0.45" clip-path="url(#XMLID_17_)" fill="#4398DA" d="M34.8,44.8l1.2,1.1l-0.5,0.9l-0.4,1.3c0,0-0.6,0-0.8-0.3
			s-1-1.5-1-1.5l0.2-1.7L34.8,44.8z"/>
	</g>
	<g>
		<defs>
			<path id="XMLID_2_" d="M29.5,34.9c0,0-0.1,4.1-0.1,5.5s-0.2,4,0,4.3s2.7,1,2.9-0.1c0.2-1.1,0.1-6.8,0.1-6.8s0.3,0.2,0.8,0
				c0,0,0.2,7.4,0.5,7.4c0.3,0,2.9,0.2,2.9-0.6c0-0.8-0.6-6.3-0.6-7.2c0-0.9-0.1-2.8-0.1-2.8L29.5,34.9z"/>
		</defs>
		<use xlink:href="#XMLID_2_"  overflow="visible" fill="#3498DB"/>
		<clipPath id="XMLID_18_">
			<use xlink:href="#XMLID_2_"  overflow="visible"/>
		</clipPath>
		<g clip-path="url(#XMLID_18_)">
			<path fill="#3B7194" d="M36.4,37.7c0,0-0.2,0.1-0.5,0.1c-0.2,0-0.4-0.1-0.6-0.3c-0.2-0.1-0.3-0.3-0.5-0.6
				c-0.3-0.4-0.4-0.9-0.5-1.2c-0.1-0.3-0.1-0.5-0.1-0.5c0,0,0.1,0.2,0.2,0.5c0.1,0.3,0.3,0.7,0.5,1.1c0.2,0.4,0.6,0.7,0.9,0.8
				C36.2,37.7,36.4,37.6,36.4,37.7z"/>
		</g>
		<g clip-path="url(#XMLID_18_)">
			<path fill="#3B7194" d="M29,38c0-0.1,0.6-0.5,1.2-1.2c0.3-0.4,0.5-0.7,0.6-1c0.1-0.3,0.2-0.5,0.2-0.5c0,0,0,0.2-0.1,0.5
				c-0.1,0.3-0.3,0.7-0.6,1.1c-0.3,0.4-0.7,0.7-0.9,0.8C29.2,38,29.1,38.1,29,38z"/>
		</g>
		<path opacity="0.45" clip-path="url(#XMLID_18_)" fill="#4398DA" d="M36.5,36l-6.3,0.6c0,0-0.4,7.6,0.4,8.4
			c0.8,0.7-2.1,0.5-2.1,0.5l-0.8-8l1.3-3.4l5.9,0.3l2.5,0.3L36.5,36z"/>
		<path opacity="0.45" clip-path="url(#XMLID_18_)" fill="#4398DA" d="M33.7,37.4c0,0,0.4,6.8,0.7,6.9s2.7-0.2,2.8-0.6
			s0.5,1.3,0.5,1.3l-2.2,0.8l-2.4-0.4l-0.2-7.6C32.9,37.8,33.2,37.9,33.7,37.4z"/>
	</g>
	<g>
		<defs>
			<path id="XMLID_9_" d="M36.9,31.2c0,0,1.3,2.9,1.1,6.1c0,0-1.3,0.4-1.1,0.8S38,38,38,38s-0.4,2.1-0.1,2.2
				c0.3,0.1,0.6-1.7,0.6-1.7s0.2,1.3,0.5,1.3c0.4,0,0.1-1.4,0.1-1.4s0.7,1.2,1,0.9s-0.6-1.3-0.6-1.3s1,0.4,1,0c0-0.5-1.3-1-1.8-1.1
				c0,0,0.2-3.5-1.3-6S36.9,31.2,36.9,31.2z"/>
		</defs>
		<use xlink:href="#XMLID_9_"  overflow="visible" fill="#ECC19C"/>
		<clipPath id="XMLID_19_">
			<use xlink:href="#XMLID_9_"  overflow="visible"/>
		</clipPath>
		<path opacity="0.45" clip-path="url(#XMLID_19_)" fill="#ECB789" d="M38.4,31.7l-0.7,0.7c0,0,0.8,2.4,0.5,4.9l-0.3,0.1l-1.6-5.6
			l1.2-0.9L38.4,31.7z"/>
	</g>
	<g>
		<defs>
			<path id="XMLID_10_" d="M28.1,30.8c0,0-1.7,2.9-2.3,2.8c-0.5-0.2-1.4-1.2-1.4-1.2s1.1-1,0.7-1.4c-0.4-0.4-1.1,0.8-1.1,0.8
				s-1-1.6-1.5-1.3c-0.5,0.3,0.8,1.4,0.8,1.4s-1.6-0.9-1.8-0.2c-0.2,0.6,1.7,0.9,1.7,0.9s-1.6,0-1.6,0.4s1.4,0.1,1.4,0.1
				s-1,0.4-0.8,0.6c0.2,0.2,1.4-0.1,1.5-0.3c0,0,1.7,1.7,2.5,1.2c0.7-0.6,2.8-3.2,2.8-3.2L28.1,30.8z"/>
		</defs>
		<use xlink:href="#XMLID_10_"  overflow="visible" fill="#ECC19C"/>
		<clipPath id="XMLID_20_">
			<use xlink:href="#XMLID_10_"  overflow="visible"/>
		</clipPath>
		<path opacity="0.45" clip-path="url(#XMLID_20_)" fill="#ECB789" d="M23.8,33.3l0.2-0.3c0,0,1.3,1.7,2.1,1.1
			c0.7-0.6,1.7-1.9,1.7-1.9l-0.4-1.3l2.4-0.1l-0.1,1.4L28,35.1l-1.5,0.8l-2-0.6L23.8,33.3z"/>
	</g>
	<g>
		<defs>
			<path id="XMLID_7_" d="M35.9,32.1c0,0,1.9-0.2,2.3-1.1c0.4-0.9-1.8-3.5-1.8-3.5l-1.4,1L35.9,32.1z"/>
		</defs>
		<use xlink:href="#XMLID_7_"  overflow="visible" fill="#D14226"/>
		<clipPath id="XMLID_21_">
			<use xlink:href="#XMLID_7_"  overflow="visible"/>
		</clipPath>
		<polygon opacity="0.45" clip-path="url(#XMLID_21_)" fill="#D14226" points="37.8,28.7 36.7,29.4 37.1,32.1 35.2,33.1 34.5,28.3 
			37.2,27 		"/>
	</g>
	<g>
		<defs>
			<path id="XMLID_8_" d="M29.4,31.9c0,0-2.7-1.1-2.6-1.7s2.6-2.5,2.6-2.5l0.7,0.8L29.4,31.9z"/>
		</defs>
		<use xlink:href="#XMLID_8_"  overflow="visible" fill="#D14226"/>
		<clipPath id="XMLID_22_">
			<use xlink:href="#XMLID_8_"  overflow="visible"/>
		</clipPath>
		<path opacity="0.45" clip-path="url(#XMLID_22_)" fill="#D14226" d="M29,28l-0.5,2.6c0,0-1.1-0.6-1.4-1.2
			c-0.4-0.6-1.1,1.5-1.1,1.5l1.8,1.6l3.1-0.6l-1-4.3L29,28z"/>
	</g>
	<g>
		<defs>
			<path id="XMLID_1_" d="M29.3,28.2c0,0-0.7,7-0.4,7.3c0.3,0.2,6.6,0.4,7.3-0.2c0,0,0-6.7-0.2-7.5C35.7,27,29.3,28.2,29.3,28.2z"/>
		</defs>
		<use xlink:href="#XMLID_1_"  overflow="visible" fill="#FF512E"/>
		<clipPath id="XMLID_23_">
			<use xlink:href="#XMLID_1_"  overflow="visible"/>
		</clipPath>
		<path clip-path="url(#XMLID_23_)" fill="#D14226" d="M30.4,28.4c0,0,1.9,3.1,2.1,3c0.2-0.1,2.4-2.9,2.4-2.9L30.4,28.4z"/>
		<path clip-path="url(#XMLID_23_)" fill="#CCA686" d="M30.9,28.3c0,0,1.4,2.4,1.6,2.3c0.2-0.1,2-2.3,2-2.3L30.9,28.3z"/>
		<path opacity="0.45" clip-path="url(#XMLID_23_)" fill="#D14226" d="M36.5,28.8L30,30c0,0-0.8,4.9,0,5.1c0.8,0.2,6.6-0.1,6.6-0.1
			l-0.5,2.6l-6.7-1c0,0-2-1-1.8-1.5s0.6-8,0.6-8s6.1,0.6,6.5,0.5S36.5,28.8,36.5,28.8z"/>
	</g>
	<g>
		<defs>
			<path id="XMLID_4_" d="M45.4,16.6c0,0,0.9-2.9,0.1-5.8c0,0,0.7,0.6,0.9,1.1c0,0,0.1-2.7-1.6-4.8c0,0,1.7,0.3,2.1,0.5
				c0,0-1.2-2.4-3.1-3.2c0,0,0.6-1.5,1.2-1.8c0,0-2.2,0.4-2.6,1.7c0,0-1.7-3.4-4.9-4.4c0,0,1.2,2.2,0.7,3.4c0,0-3-3-7.1-3
				c0,0,1.2,1.2,1.3,2.1c0,0-3.9-1.6-9.2,0.1c0,0,1.9,0.4,2.6,1c0,0-5.5-0.1-7.7,3.2c0,0,1.5-0.3,2.3,0c0,0-2.3,2.6-2.3,4.3
				c0,0,1.3-1,1.9-1.2c0,0-1.7,4.5-0.7,7.7S45.4,16.6,45.4,16.6z"/>
		</defs>
		<use xlink:href="#XMLID_4_"  overflow="visible" fill="#745A44"/>
		<clipPath id="XMLID_24_">
			<use xlink:href="#XMLID_4_"  overflow="visible"/>
		</clipPath>
		<path opacity="0.45" clip-path="url(#XMLID_24_)" fill="#745A44" d="M35.3,10.9c0,0-4.8,0-6.3-3.4s-6.1-2.7-10.5-0.9
			c-4.4,1.8-3.8,0-3.8,0L14.4,16c0,0,3.9,4,4.3,4c0.5,0,10.4-2,10.8-2.1C30.1,17.7,35.3,10.9,35.3,10.9z"/>
		<path opacity="0.45" clip-path="url(#XMLID_24_)" fill="#745A44" d="M33.1,8.8c0,0-0.7-1.5,0.4-1.3c1,0.1,5.1,2,8.1,1.3
			s4.8,1.9,4.8,3.2s0.3,4.3,0.3,4.3l-2.6,1l-2.9,0.4l-4.8-7.2L33.1,8.8z"/>
		<path opacity="0.45" clip-path="url(#XMLID_24_)" fill="#745A44" d="M25.9,3.6c0,0,1.6,0.9,2.1,0.1c0.5-0.8-4.7-1.1-4.7-1.1
			L22,3.4L25.9,3.6z"/>
		<path opacity="0.45" clip-path="url(#XMLID_24_)" fill="#745A44" d="M32.6,2.4c0,0,1.1,1.1,1.8,0.7s-3.1-2.8-3.1-2.8l-0.7,0.3
			L32.6,2.4z"/>
		<path opacity="0.45" clip-path="url(#XMLID_24_)" fill="#745A44" d="M38.3,3.4c0,0,0.3,1.7,1.3,1.6c1-0.1-0.5-4.3-2-5
			c-1.5-0.7-1.2,0.8-1,0.8C36.7,0.8,38.3,3.4,38.3,3.4z"/>
		<path opacity="0.45" clip-path="url(#XMLID_24_)" fill="#745A44" d="M42.4,4.4c0,0-0.3,0.6,0.1,0.6c0.5,0.1,1.3-2.1,2.2-2.4
			c0.9-0.3-1.5-1-1.5-1L42.4,4.4z"/>
		<path opacity="0.45" clip-path="url(#XMLID_24_)" fill="#745A44" d="M44.8,7.2c0,0-0.9-0.3-0.9-0.7s2,0.1,3,1.2s1,1.4,1,1.4
			L44.8,7.2z"/>
	</g>
	<g>
		<defs>
			<path id="XMLID_6_" d="M21.1,17.4c0,0-1.1-1.9-2.1-0.4c-1,1.5,0.6,4.8,2.2,4.1C22.6,20.3,21.1,17.4,21.1,17.4z"/>
		</defs>
		<use xlink:href="#XMLID_6_"  overflow="visible" fill="#CCA686"/>
		<clipPath id="XMLID_25_">
			<use xlink:href="#XMLID_6_"  overflow="visible"/>
		</clipPath>
		<path opacity="0.45" clip-path="url(#XMLID_25_)" fill="#ECB789" d="M19.8,16c0,0,0.1,3.1,0.4,4.1c0,0-1.2,0.5-2.1-0.5
			c-0.9-1,1.7,3.4,1.9,3.4c0.1,0,2.7-0.7,2.7-0.7s-0.5-3.3-0.4-3.4S21,16.5,21,16.5L19.8,16z"/>
	</g>
	<g>
		<defs>
			<path id="XMLID_5_" d="M43.3,17.3c0,0,0.5-1.6,2.1-1.6c1.6,0,1.5,3.6,0.3,4.6c-1.3,1-2.1,0.8-2.4,0.1
				C43,19.7,43.3,17.3,43.3,17.3z"/>
		</defs>
		<use xlink:href="#XMLID_5_"  overflow="visible" fill="#CCA686"/>
		<clipPath id="XMLID_26_">
			<use xlink:href="#XMLID_5_"  overflow="visible"/>
		</clipPath>
		<path opacity="0.45" clip-path="url(#XMLID_26_)" fill="#ECB789" d="M44.1,15.7c0,0,0.2,2.7,0,4.4c0,0,2.3,0.2,2.7-2.6
			s0.9,3.6,0.8,3.7s-2.9,1.3-2.9,1.3l-2.9-1.2l0.3-4.7l1.6-1.3L44.1,15.7z"/>
	</g>
	<g>
		<defs>
			<path id="XMLID_3_" d="M42.6,10.5c1.6,10,3,18.9-11,18.1c-14.4-0.8-10.9-15.8-10.9-15.8s1.2-4.4,6.6-4.2c0,0,3.9,3.8,8.2,2.2
				c0,0-1.8-0.2-2.4-2.1c0,0,3.1,1.4,6.2,1.6C42.4,10.5,42.6,10.5,42.6,10.5z"/>
		</defs>
		<use xlink:href="#XMLID_3_"  overflow="visible" fill="#ECC19C"/>
		<clipPath id="XMLID_27_">
			<use xlink:href="#XMLID_3_"  overflow="visible"/>
		</clipPath>
		<g clip-path="url(#XMLID_27_)">
			<path opacity="0.45" fill="#ECB789" d="M22.3,13.3l0.4,1.1c0,0,1.7-1.9,3.1-2.4L25,10.9C25,10.9,23.1,11.9,22.3,13.3z"/>
			<path opacity="0.45" fill="#ECB789" d="M43.8,23.3c-1,3.8-9.3,6-16.6,3.3c-7.3-2.7-7-14.2-3.8-16.1c1.1-0.6,2.1-1,3-1.1
				c0.7,0.8,4.9,4.7,10.2,1.4c0,0,0.5,0.1,1.3,0.2l-0.7,1c1.4,0.5,3.1,2.4,3.1,2.4l0.4-1.1c-0.6-1.1-1.8-1.9-2.4-2.2
				c1.4,0.2,3.4,0.4,4.6,0.3c2-0.3,0.9-2.7,0.9-2.7l-5-2.2l-6.9,0.4l-3,1.4l-0.4-1.3c0,0-5.2-0.6-5.5-0.5c-0.3,0.1-3.3,2.4-3.3,2.4
				l-0.9,8l1,9.9L30,31.9l15.6-0.8C45.6,31.1,44.8,19.5,43.8,23.3z"/>
		</g>
	</g>
	<path fill="#FFFFFF" d="M28.5,18.2c0,1.8-1.4,3.2-3.2,3.2s-3.2-1.4-3.2-3.2s1.4-3.2,3.2-3.2S28.5,16.4,28.5,18.2z M34.9,18.2
		c0,1.8,1.4,3.2,3.2,3.2c1.8,0,3.2-1.4,3.2-3.2S39.9,15,38.1,15C36.3,15,34.9,16.4,34.9,18.2z"/>
	<path fill="#231F20" d="M27.8,18.2c0,0.5-0.4,0.9-0.9,0.9c-0.5,0-0.9-0.4-0.9-0.9c0-0.5,0.4-0.9,0.9-0.9
		C27.4,17.3,27.8,17.7,27.8,18.2z M36.1,18.2c0,0.5,0.4,0.9,0.9,0.9s0.9-0.4,0.9-0.9c0-0.5-0.4-0.9-0.9-0.9S36.1,17.7,36.1,18.2z"/>
	<g>
		<path fill="#A98667" d="M31.2,21.6c0,0-0.1,0.1-0.2,0.1c-0.1,0.1-0.3,0.1-0.6,0.1c-0.1,0-0.3,0-0.4-0.1c-0.1-0.1-0.3-0.2-0.3-0.4
			c-0.1-0.2-0.1-0.4,0-0.6c0-0.1,0-0.2,0.1-0.3c0.1-0.1,0.2-0.2,0.3-0.2c0.3-0.1,0.5,0,0.8,0.1c0.1,0,0.2,0.1,0.3,0.1
			c0,0,0.1,0.1,0.1,0.1l0,0c0,0,0,0,0,0c0,0,0-0.1,0-0.1c0-0.1,0-0.2,0-0.3c0-0.2,0-0.3,0-0.4c0-0.2,0-0.4,0.1-0.4
			c0,0,0,0.1,0.1,0.4c0,0.1,0,0.3,0,0.4c0,0.1,0,0.2,0,0.3c0,0.1,0,0.3,0,0.4c-0.1,0-0.2-0.1-0.3-0.1c-0.1,0-0.1,0-0.1-0.1
			c-0.1,0-0.2-0.1-0.3-0.1c-0.2-0.1-0.4-0.1-0.6-0.1c-0.2,0-0.2,0.2-0.3,0.3c0,0.2,0,0.3,0,0.4c0.1,0.3,0.4,0.4,0.6,0.4
			c0.2,0,0.4,0,0.6-0.1C31.1,21.6,31.2,21.6,31.2,21.6z"/>
	</g>
	<path fill="#DE888B" d="M31.4,25.9c0.4,0.3,0.9,0.5,1.6,0.5c0.7,0,1.2-0.2,1.6-0.6c-0.4-0.2-0.9-0.4-1.6-0.4
		C32.1,25.5,31.6,25.7,31.4,25.9z"/>
	<path fill="#FFFFFF" d="M35.5,24.2c0.2-0.5,0.2-1,0.2-1c-1.9,1.7-5.7,0.5-5.7,0.5s0.1,0.4,0.3,0.9C31.5,25,34,25.6,35.5,24.2z"/>
	<path fill="#63413E" d="M35.5,24.2c-1.6,1.3-4.1,0.8-5.2,0.5c0.2,0.4,0.5,0.9,1,1.2c0.3-0.2,0.7-0.4,1.6-0.4c0.7,0,1.2,0.2,1.6,0.4
		C35.1,25.4,35.4,24.8,35.5,24.2z"/>
	<path fill="#745A44" d="M22.3,12.9c0.8-1.4,2.7-2.4,2.7-2.4l0.8,1.1c-1.4,0.5-3.1,2.4-3.1,2.4L22.3,12.9z M40.7,12.9
		c-0.8-1.4-2.7-2.4-2.7-2.4l-0.8,1.1c1.4,0.5,3.1,2.4,3.1,2.4L40.7,12.9z"/>
	<g>
		<defs>
			<path id="XMLID_12_" d="M31.1,47.6c0,0,0.2-1.9-1.7-1.9c-1.7-0.1-1.8,2.5-0.9,2.7c0.9,0.2,2.8,0.6,3.9-1.3v-0.6L31.1,47.6z"/>
		</defs>
		<use xlink:href="#XMLID_12_"  overflow="visible" fill="#E6E7E8"/>
		<clipPath id="XMLID_28_">
			<use xlink:href="#XMLID_12_"  overflow="visible"/>
		</clipPath>
		<path opacity="0.45" clip-path="url(#XMLID_28_)" fill="#D1D3D4" d="M29.7,45.4c0,0-1,1.1-0.7,2.5c0.4,1.3,3.5-0.4,3.5-1.4
			c0-1,0.1,3,0.1,3l-3.3,0.1l-1.7-1.5L27,46l1.2-1.4L29.7,45.4z"/>
	</g>
	<g>
		<defs>
			<path id="XMLID_11_" d="M35,47.6c0,0-0.2-1.9,1.7-1.9c1.7-0.1,1.8,2.5,0.9,2.7c-0.9,0.2-2.8,0.6-3.9-1.3v-0.6L35,47.6z"/>
		</defs>
		<use xlink:href="#XMLID_11_"  overflow="visible" fill="#E6E7E8"/>
		<clipPath id="XMLID_29_">
			<use xlink:href="#XMLID_11_"  overflow="visible"/>
		</clipPath>
		<path opacity="0.45" clip-path="url(#XMLID_29_)" fill="#D1D3D4" d="M36.8,45.4c0,0-1.3,0.7-1,2.6c0,0,2.4,0.2,2.7-0.7
			c0.4-0.9,0.1,1.7,0.1,1.7l-2.9,0.6l-1.9-1l-0.9-2.2l0.7-1.2L36.8,45.4z"/>
	</g>
	<g>
		<g>
			<path fill="#3B7194" d="M33.8,37.3c0,0,0,0,0,0.1c0,0.1-0.1,0.2-0.2,0.2c-0.1,0-0.1,0.1-0.2,0.1c-0.1,0-0.1,0.1-0.2,0.1
				c0,0-0.1,0-0.1,0c0,0-0.1,0-0.1,0c-0.1,0-0.1,0-0.2,0c-0.1,0-0.1,0-0.2,0c-0.4-0.1-0.7-0.3-0.9-0.4c-0.2-0.2-0.3-0.3-0.3-0.3
				c0,0,0.1,0.1,0.4,0.2c0.2,0.1,0.5,0.3,0.9,0.4c0.4,0.1,0.7,0,0.9-0.2c0.1-0.1,0.2-0.1,0.2-0.2C33.8,37.3,33.8,37.3,33.8,37.3z"/>
		</g>
	</g>
	<g>
		<path fill="#A98667" d="M44.4,19.4c0,0-0.1-0.2-0.2-0.5c0-0.1-0.1-0.3-0.1-0.5c0-0.2,0-0.4,0-0.7c0-0.1,0.1-0.2,0.1-0.3
			c0-0.1,0.1-0.1,0.1-0.1c0,0,0.1-0.1,0.1-0.1c0.1-0.1,0.2-0.1,0.3-0.1c0.1,0,0.2,0,0.3,0c0.2,0.1,0.2,0.2,0.2,0.3
			c0,0.1,0,0.1,0,0.1c0,0,0,0-0.1-0.1c0-0.1-0.1-0.2-0.2-0.2c-0.1,0-0.1,0-0.2,0c-0.1,0-0.1,0.1-0.2,0.1c-0.1,0.1-0.2,0.3-0.3,0.5
			c0,0.2-0.1,0.4,0,0.6c0,0.2,0,0.4,0,0.5C44.4,19.3,44.4,19.4,44.4,19.4z"/>
	</g>
</g>
<g>
	<path fill="#3C3F42" d="M11.6,53.4c1.1,0.3,2.4,0.5,3.4,1.1c1.4,0.8,2.9,1.7,4.1,2.7c1,0.9,1.4,2.3,0.9,3.7
		c-0.1,0.4-0.2,0.9-0.1,1.3c0.8,3-0.7,5.5-2.2,7.9c-2.1,3.1-6.9,4.4-10.1,3.1c-1.3-0.5-1.7-1.5-1.2-2.6c0.8-1.6,0.5-3.2,0.3-4.9
		C6.2,61.8,5.8,58,5,54.2c-0.6-3.3-1.6-6.4-2.4-9.7c-0.6,0.3-1.3,0.7-2.1,1.1c-0.9-1.4-0.7-2.4,0.4-3.2c3.4-2.3,7.1-2.9,11.1-2.6
		c1.7,0.1,3.8,3.2,3.8,5c-0.1,3.4-1.5,6.1-4.2,8.2C11.6,53.1,11.6,53.2,11.6,53.4z M17,62.7c0.1-3.3-0.6-4.2-3.9-5.1
		c-0.6-0.2-1.2-0.3-1.8-0.4c-2-0.5-2.7,0.1-2.5,2.1c0.1,1.3,0.3,2.6,0.4,3.9c0.2,1.7,0.3,3.5,0.6,5.2c0.3,1.6,0.9,1.8,2.5,1.2
		C15.5,68.4,16.9,66,17,62.7z M7.5,53c2.5-1.2,4.7-3.6,5.3-5.5c0.7-2.2-1-5.3-2.8-5.1c-1.1,0.1-2.1,0.5-3.2,0.5
		c-0.9,0.1-1.1,0.5-1,1.2C6.3,47.1,6.9,50,7.5,53z"/>
	<path fill="#3C3F42" d="M58.1,63.4c0.2-0.4,0.4-0.6,0.5-0.9c1.6-3.6,3.3-7.2,4.8-10.8c0.4-1,0.6-2.1,1-3.1c0.6-1.8,1.6-2.6,3-2.6
		c1.5,0,2.1,0.9,1.6,2.2c-0.1,0.2-0.2,0.4-0.3,0.6c-2.8,6.1-5.5,12.2-8.3,18.3c-0.8,1.8-1.7,3.5-2.4,5.2c-2.5,6.5-4.5,13.1-7.6,19.3
		c-0.5,1.1-0.7,2.3-0.9,3.5c-0.2,1.2-1.2,2.1-2.2,1.9c-1.1-0.3-1.6-1.2-1.3-2.3c0.7-2.3,1.4-4.6,2.3-6.9c2.7-6.7,5.4-13.3,8.1-20
		c0.2-0.5,0.1-1.4-0.2-1.9c-1.6-2.7-3.2-5.3-4.9-7.9c-0.9-1.3-2-2.5-3-3.8c-1.2-1.7-0.7-3.6,1.1-4.2c1-0.3,1.4,0,1.9,0.9
		c2.1,3.9,4.2,7.9,6.3,11.8C57.5,62.8,57.7,62.9,58.1,63.4z"/>
	<path fill="#3C3F42" d="M44,59.5c0.5,3.6-1.6,5.9-4.2,7.9c-2.7,2-9,2.1-11.6-1.2c-2.8-3.5-5.2-7-4-11.9c1.1-4.5,3.7-6.9,8.2-7.3
		c0.9-0.1,1.9,0.1,2.8,0.4c1.7,0.6,3.5,1.3,5.1,2.2c2.8,1.5,3.4,4.3,3.7,7.2C44.1,57.7,44,58.6,44,59.5z M33.8,65.3
		c7-0.4,8.2-5.1,7.1-9.8c-2-1.9-3.5-4.3-6.2-5.3c-1.9-0.7-6.1,0.9-6.6,2.7c-0.8,2.4-1.2,4.9,0.1,7.3C29.4,63.1,31.2,65.3,33.8,65.3z
		"/>
</g>
</svg>
